<?xml version="1.0" encoding="UTF-8" standalone="no"?>
<svg width="181px" height="192px" viewBox="0 0 181 192" version="1.1" xmlns="http://www.w3.org/2000/svg" xmlns:xlink="http://www.w3.org/1999/xlink">
    <!-- Generator: sketchtool 41 (35326) - http://www.bohemiancoding.com/sketch -->
    <title>44167354-DBCF-4E01-84B6-58303E5A024B</title>
    <desc>Created with sketchtool.</desc>
    <defs></defs>
    <g id="Mi.hr" stroke="none" stroke-width="1" fill="none" fill-rule="evenodd">
        <g id="Naslovna" transform="translate(-215.000000, -34.000000)">
            <g id="Group-8" transform="translate(215.000000, 34.000000)">
                <g id="Group-6">
                    <polygon id="Rectangle-Copy-3" fill="#D0011B" points="36.2 37.8195135 83.4862061 7.36461708 86.531077 27.0246565 124.225432 0 129.216696 28.4475611 172.955556 5.89169367 150.466841 153.062937 36.2 153.062937"></polygon>
                    <polygon id="Rectangle-Copy-2" fill="#229058" points="4.02222222 13.4265734 150.162963 38.4605119 150.162963 153.062937 35.6855264 153.062937"></polygon>
                    <path d="M36.4874103,37.5944056 L151.503704,37.5944056 L151.503704,152.810901 C151.503704,152.810901 72.0477178,196.596118 63.1645378,191.603298 C54.2813578,186.610477 63.9120281,174.965389 55.0800821,169.57646 C46.248136,164.18753 37.8470807,179.175202 30.0542644,175.5181 C22.2614481,171.860997 33.2245315,159.741382 26.6150208,154.765129 C20.0055101,149.788875 10.9059012,161.067347 3.89079013,152.810901 C-3.12432097,144.554456 23.576453,132.092146 19.028454,124.602915 C14.480455,117.113685 7.80427627,127.946815 0.779969329,118.548101 C-6.24433761,109.149387 36.4874103,37.5944056 36.4874103,37.5944056 Z" id="Rectangle-Copy-4" fill="#F8E71C"></path>
                    <path d="M36.2,37.5944056 L150.561354,37.5944056 C150.561354,37.5944056 211.381134,114.236631 161.077656,164.448902 C110.774178,214.661172 36.2,152.022232 36.2,152.022232 L36.2,37.5944056 Z" id="Rectangle-Copy" fill="#9C5CE0"></path>
                    <rect id="Rectangle" fill="#000000" x="36.2" y="37.5944056" width="115.303704" height="115.468531"></rect>
                    <path d="M110.980971,65.7902098 L110.980971,124.867133 L97.6313538,124.867133 L97.6313538,104.221972 L90.4003113,124.867133 L77.0506944,124.867133 L69.660728,103.586736 L69.660728,124.867133 L56.3111111,124.867133 L56.3111111,65.7902098 L69.899114,65.7902098 L83.7255029,105.651252 L97.6313538,65.7902098 L110.980971,65.7902098 Z M130.051852,65.7902098 L130.051852,124.867133 L116.702235,124.867133 L116.702235,65.7902098 L130.051852,65.7902098 Z" id="mi-copy-4" fill="#FFFFFF"></path>
                </g>
            </g>
        </g>
    </g>
</svg>